:SAMPLES-PER-SECOND 30
:FULLY-SPECIFIED
:DEGREES
492
root  12.1268 33.7025 4.11244 11.0895 -66.5014 1.66052
RightUpLeg  -14.3147 -12.6826 6.00205
RightLeg  11.6856 -10.7003 -1.49128
RightFoot  -0.403999 -0.00178689 0.0112702
RightToes  -21.0189 -0.0886703 -0.18701
Spine  7.44058 0.111566 -2.47878
Spine1  14.3161 1.09578 -5.91089
HEad  -14.6841 -10.8998 25.0107
LeftShoulder1  0 -2.42657e-020 -4.95415e-022
LeftArm  -38.2597 8.12962 -78.8174
LeftForeArm  47.8856 -20.9968 -3.85195
LeftHand  0.25489 -6.58342 -4.80456
RightShoulder  0 2.42657e-020 1.07489e-018
RightArm  -40.1187 -5.10446 85.3431
RightForeArm  45.3301 25.121 4.7195
RightHand  -0.814875 25.0348 -3.3
LeftUpLeg  -22.4436 -1.81031 -1.33965
LeftLeg  8.97557 -7.69936 -0.712252
LeftFoot  10.173 0.122153 -1.37231
LeftToes  -2.24992 1.28829e-006 1.15665e-007
493
root  12.0772 33.6968 4.19897 10.7348 -66.6805 1.80566
RightUpLeg  -14.0218 -12.8508 5.77166
RightLeg  11.7802 -10.4143 -1.46936
RightFoot  -0.461338 -0.00223703 0.0223103
RightToes  -21.3922 -0.089376 -0.187921
Spine  7.43989 0.114848 -2.46426
Spine1  14.3011 1.10804 -5.8906
HEad  -15.0722 -10.7485 24.8318
LeftShoulder1  0 -2.42657e-020 -4.95415e-022
LeftArm  -38.922 8.08441 -79.0407
LeftForeArm  47.7937 -20.8528 -3.82297
LeftHand  0.253394 -6.51597 -4.82429
RightShoulder  0 2.42657e-020 1.07489e-018
RightArm  -39.7393 -5.00909 85.5223
RightForeArm  46.5141 25.0927 4.71154
RightHand  -0.933106 25.1014 -3.82057
LeftUpLeg  -22.2105 -1.86556 -1.46944
LeftLeg  9.25701 -7.49986 -0.731027
LeftFoot  9.9049 0.112581 -1.29918
LeftToes  -2.30153 1.28829e-006 1.15665e-007
494
root  12.0378 33.6852 4.2851 10.2056 -66.7848 1.98431
RightUpLeg  -13.7244 -12.3757 5.45826
RightLeg  12.1898 -10.8597 -1.61017
RightFoot  -0.677685 -0.00491694 0.0689486
RightToes  -21.5129 -0.0900519 -0.188773
Spine  7.57234 0.135719 -2.41888
Spine1  14.5473 1.15009 -5.78334
HEad  -16.0346 -10.7078 24.5569
LeftShoulder1  0 -2.42657e-020 -4.95415e-022
LeftArm  -38.3701 7.81225 -79.2572
LeftForeArm  46.9104 -20.7521 -3.80406
LeftHand  0.246489 -6.32447 -4.83454
RightShoulder  0 2.42657e-020 1.07489e-018
RightArm  -39.121 -5.13617 85.4927
RightForeArm  46.1953 25.7466 4.85398
RightHand  -1.01156 24.9015 -4.2102
LeftUpLeg  -22.0983 -1.86079 -1.65872
LeftLeg  10.0033 -7.38717 -0.817187
LeftFoot  9.39006 0.0995125 -1.21165
LeftToes  -1.84712 1.28829e-006 1.15665e-007
495
root  12.0239 33.6908 4.36092 10.0025 -66.807 2.0264
RightUpLeg  -13.5116 -11.9395 5.26025
RightLeg  12.2785 -11.3181 -1.69496
RightFoot  -0.73604 -0.00583095 0.0874653
RightToes  -21.379 -0.0907155 -0.189502
Spine  7.5937 0.121533 -2.33998
Spine1  14.602 1.10674 -5.62079
HEad  -16.6953 -10.754 24.192
LeftShoulder1  0 -2.42657e-020 -4.95415e-022
LeftArm  -37.6961 7.86311 -79.6373
LeftForeArm  46.3411 -21.405 -3.9373
LeftHand  0.259817 -6.38757 -5.02907
RightShoulder  0 2.42657e-020 1.07489e-018
RightArm  -38.3092 -5.38979 85.3186
RightForeArm  44.7803 26.2324 4.96265
RightHand  -1.07717 24.7426 -4.53924
LeftUpLeg  -21.9607 -1.91675 -1.78895
LeftLeg  10.1895 -7.26769 -0.827931
LeftFoot  9.25706 0.0945082 -1.17483
LeftToes  -1.68263 1.28829e-006 1.15665e-007
496
root  12.0152 33.7176 4.42224 10.0427 -66.934 2.07306
RightUpLeg  -13.3703 -11.7049 5.13708
RightLeg  11.9196 -11.4453 -1.64098
RightFoot  -0.495128 -0.0027975 0.0423081
RightToes  -21.6943 -0.0913736 -0.190148
Spine  7.50769 0.0667311 -2.31903
Spine1  14.4661 0.97504 -5.57167
HEad  -16.6217 -10.593 24.0031
LeftShoulder1  0 -2.42657e-020 -4.95415e-022
LeftArm  -37.2103 8.22124 -79.9456
LeftForeArm  46.0487 -22.4891 -4.16028
LeftHand  0.282594 -6.54559 -5.31442
RightShoulder  0 2.42657e-020 1.07489e-018
RightArm  -38.5926 -5.36416 85.4236
RightForeArm  44.3491 26.1855 4.95298
RightHand  -1.01294 24.8942 -4.21783
LeftUpLeg  -21.583 -1.75104 -1.92632
LeftLeg  9.42707 -7.31808 -0.735324
LeftFoot  9.50979 0.0964673 -1.21536
LeftToes  -1.42458 1.28829e-006 1.15665e-007
497
root  12.0015 33.7328 4.47215 10.2267 -67.2612 2.1041
RightUpLeg  -13.4317 -11.5706 5.06315
RightLeg  11.6775 -11.2366 -1.56337
RightFoot  -0.359204 -0.00113837 0.0144191
RightToes  -21.5849 -0.0920215 -0.190756
Spine  7.43657 0.0251185 -2.34966
Spine1  14.3327 0.89047 -5.63895
HEad  -16.4381 -10.1773 24.0204
LeftShoulder1  0 -2.42657e-020 -4.95415e-022
LeftArm  -36.6063 8.50312 -80.084
LeftForeArm  45.6111 -23.2133 -4.31161
LeftHand  0.290777 -6.66036 -5.36957
RightShoulder  0 2.42657e-020 1.07489e-018
RightArm  -39.0451 -5.21788 85.6523
RightForeArm  44.5131 26.2614 4.96944
RightHand  -0.897335 24.8199 -3.70721
LeftUpLeg  -21.3078 -1.19968 -2.07283
LeftLeg  8.6531 -7.63511 -0.663132
LeftFoot  9.75676 0.102477 -1.30052
LeftToes  -1.28658 1.28829e-006 1.15665e-007
498
root  11.9982 33.7372 4.51482 10.2915 -67.5485 2.11569
RightUpLeg  -13.2872 -11.5155 4.98746
RightLeg  11.263 -11.0214 -1.45313
RightFoot  -0.135102 0.0012713 -0.0301079
RightToes  -21.9749 -0.0926546 -0.191366
Spine  7.37594 -0.0339343 -2.39623
Spine1  14.2186 0.767363 -5.72343
HEad  -16.377 -9.78455 24.1873
LeftShoulder1  0 -2.42657e-020 -4.95415e-022
LeftArm  -36.0114 8.74331 -80.1682
LeftForeArm  45.5745 -23.5314 -4.37839
LeftHand  0.288152 -6.65919 -5.1827
RightShoulder  0 2.42657e-020 1.07489e-018
RightArm  -39.1597 -5.30257 85.8387
RightForeArm  44.9697 26.3693 4.99255
RightHand  -0.999 24.9759 -4.13949
LeftUpLeg  -21.2031 -0.960324 -2.14932
LeftLeg  8.43177 -7.65426 -0.635067
LeftFoot  9.75146 0.103528 -1.30282
LeftToes  -1.28747 1.28829e-006 1.15665e-007
499
root  12.0092 33.7394 4.54342 10.3301 -67.7538 2.0462
RightUpLeg  -13.181 -11.4782 4.94523
RightLeg  11.0675 -10.8716 -1.39615
RightFoot  -0.0286345 0.00189759 -0.050793
RightToes  -21.913 -0.0932684 -0.192023
Spine  7.41994 -0.0767967 -2.45196
Spine1  14.3133 0.671815 -5.79913
HEad  -16.8759 -9.42306 24.4001
LeftShoulder1  0 -2.42657e-020 -4.95415e-022
LeftArm  -35.6453 8.42539 -80.18
LeftForeArm  45.9974 -23.2043 -4.30914
LeftHand  0.284653 -6.79117 -5.16993
RightShoulder  0 2.42657e-020 1.07489e-018
RightArm  -39.5596 -5.44545 86.0525
RightForeArm  45.5076 26.602 5.0432
RightHand  -1.16105 25.0477 -4.85459
LeftUpLeg  -21.2858 -1.03619 -2.15388
LeftLeg  8.67467 -7.30643 -0.637555
LeftFoot  9.62365 0.0991305 -1.2272
LeftToes  -1.1686 1.28829e-006 1.15665e-007
500
root  12.0149 33.7372 4.57489 10.2676 -68.2692 2.00763
RightUpLeg  -13.3092 -11.2436 4.84393
RightLeg  11.4607 -10.5919 -1.43423
RightFoot  -0.032349 0.001029 -0.0507202
RightToes  -22.3103 -0.0938581 -0.19276
Spine  7.59761 -0.0439232 -2.52451
Spine1  14.656 0.740789 -5.90079
HEad  -17.7442 -9.07594 24.3636
LeftShoulder1  0 -2.42657e-020 -4.95415e-022
LeftArm  -35.4031 8.02362 -80.2229
LeftForeArm  45.6483 -22.9173 -4.24977
LeftHand  0.289276 -6.73751 -5.28672
RightShoulder  0 2.42657e-020 1.07489e-018
RightArm  -39.6737 -5.39368 86.109
RightForeArm  45.2724 26.8772 5.1047
RightHand  -1.23546 24.87 -5.22989
LeftUpLeg  -21.4845 -0.220773 -2.34724
LeftLeg  9.36517 -7.55137 -0.750372
LeftFoot  9.18616 0.0974023 -1.21239
LeftToes  -0.68208 1.28829e-006 1.15665e-007
501
root  12.058 33.7226 4.57574 10.481 -68.55 1.77139
RightUpLeg  -13.6041 -10.6451 4.87093
RightLeg  11.9216 -10.9023 -1.56458
RightFoot  -0.21589 -0.00202509 -0.0177727
RightToes  -21.9386 -0.0944191 -0.193563
Spine  7.70532 -0.0982556 -2.55401
Spine1  14.8633 0.643664 -5.96663
HEad  -18.2208 -8.89205 24.1739
LeftShoulder1  0 -2.42657e-020 -4.95415e-022
LeftArm  -35.0575 7.89458 -80.2372
LeftForeArm  45.4319 -22.8545 -4.23704
LeftHand  0.275258 -6.66933 -5.09667
RightShoulder  0 2.42657e-020 1.07489e-018
RightArm  -39.3524 -5.4086 86.0004
RightForeArm  44.9253 26.9436 5.12003
RightHand  -1.26786 24.84 -5.3837
LeftUpLeg  -21.5693 -1.00906 -2.06345
LeftLeg  9.47093 -6.50085 -0.658734
LeftFoot  9.16151 0.0833886 -1.04078
LeftToes  -1.31578 1.28829e-006 1.15665e-007
502
root  12.0956 33.7252 4.58013 10.7915 -68.9989 1.58154
RightUpLeg  -13.8921 -10.1513 4.89121
RightLeg  12.0601 -10.9308 -1.59543
RightFoot  -0.106607 -0.00144118 -0.0409775
RightToes  -22.1935 -0.0949468 -0.194401
Spine  7.69868 -0.132266 -2.62729
Spine1  14.8565 0.581764 -6.11472
HEad  -18.1094 -8.91953 23.9376
LeftShoulder1  0 -2.42657e-020 -4.95415e-022
LeftArm  -34.9927 8.02403 -80.1992
LeftForeArm  45.6655 -22.9107 -4.24838
LeftHand  0.279151 -6.80469 -5.0679
RightShoulder  0 2.42657e-020 1.07489e-018
RightArm  -39.4989 -5.37527 85.985
RightForeArm  45.2017 26.4957 5.02012
RightHand  -1.22346 25.03 -5.13903
LeftUpLeg  -21.566 -0.734014 -2.0372
LeftLeg  9.18254 -6.34845 -0.611152
LeftFoot  9.22748 0.0811224 -1.02555
LeftToes  -1.2401 1.28829e-006 1.15665e-007
503
root  12.1231 33.7374 4.58583 11.1292 -69.5114 1.50043
RightUpLeg  -14.1581 -10.0398 4.91102
RightLeg  11.8897 -10.5011 -1.5018
RightFoot  0.103178 0.000415068 -0.0822096
RightToes  -22.2412 -0.0954366 -0.195241
Spine  7.72663 -0.116261 -2.73056
Spine1  14.9209 0.611558 -6.28583
HEad  -17.9819 -9.13781 23.8181
LeftShoulder1  0 -2.42657e-020 -4.95415e-022
LeftArm  -34.9045 7.86261 -80.0665
LeftForeArm  45.9416 -22.7257 -4.20948
LeftHand  0.29123 -6.81313 -5.26482
RightShoulder  0 2.42657e-020 1.07489e-018
RightArm  -40.015 -5.2171 86.0033
RightForeArm  45.8636 26.0388 4.91843
RightHand  -1.12365 24.9983 -4.69682
LeftUpLeg  -21.6521 0.313789 -2.23767
LeftLeg  8.85513 -6.87754 -0.622176
LeftFoot  9.31432 0.0870944 -1.12371
LeftToes  -0.921611 1.28829e-006 1.15665e-007
504
root  12.1765 33.7293 4.57567 11.647 -69.6902 1.23926
RightUpLeg  -14.4273 -10.2226 5.05499
RightLeg  11.6567 -10.0918 -1.4023
RightFoot  0.219719 0.00128591 -0.105018
RightToes  -22.0293 -0.0958838 -0.196051
Spine  7.71191 -0.15471 -2.78388
Spine1  14.8941 0.530485 -6.37319
HEad  -17.6795 -9.44076 23.8542
LeftShoulder1  0 -2.42657e-020 -4.95415e-022
LeftArm  -34.8867 7.63733 -79.9044
LeftForeArm  46.0553 -22.3762 -4.13691
LeftHand  0.304795 -6.90489 -5.42428
RightShoulder  0 2.42657e-020 1.07489e-018
RightArm  -40.5455 -5.31465 85.9871
RightForeArm  46.4525 25.7006 4.84352
RightHand  -1.13921 25.045 -4.75701
LeftUpLeg  -21.8629 -0.423876 -1.96082
LeftLeg  8.60676 -5.98665 -0.515902
LeftFoot  9.5049 0.0792268 -0.999583
LeftToes  -1.48724 1.28829e-006 1.15665e-007
505
root  12.2121 33.7195 4.58603 11.7318 -69.9311 1.21201
RightUpLeg  -14.4728 -10.1316 5.02358
RightLeg  11.5016 -9.93374 -1.35331
RightFoot  0.372179 0.00288179 -0.134567
RightToes  -22.4415 -0.0962839 -0.196799
Spine  7.8026 -0.135019 -2.84682
Spine1  15.0675 0.568098 -6.45559
HEad  -17.468 -9.64129 23.8676
LeftShoulder1  0 -2.42657e-020 -4.95415e-022
LeftArm  -35.1556 7.21165 -79.8249
LeftForeArm  46.0981 -21.8894 -4.03667
LeftHand  0.296622 -6.83278 -5.34096
RightShoulder  0 2.42657e-020 1.07489e-018
RightArm  -41.1533 -5.35298 85.9011
RightForeArm  46.9792 25.3539 4.76729
RightHand  -1.21914 24.9523 -5.13725
LeftUpLeg  -22.3084 0.202034 -2.13721
LeftLeg  9.30467 -6.32097 -0.622109
LeftFoot  9.1412 0.080512 -1.01803
LeftToes  -1.00624 1.28829e-006 1.15665e-007
